<mxfile host="app.diagrams.net" modified="2021-06-10T21:58:00.196Z" agent="5.0 (Macintosh; Intel Mac OS X 10_14_6) AppleWebKit/537.36 (KHTML, like Gecko) Chrome/91.0.4472.77 Safari/537.36" etag="bfNWeXw0BYwzdEodQvxp" version="14.7.6" type="github">
  <diagram id="6a731a19-8d31-9384-78a2-239565b7b9f0" name="Page-1">
    <mxGraphModel dx="1948" dy="1061" grid="1" gridSize="10" guides="1" tooltips="1" connect="1" arrows="1" fold="1" page="1" pageScale="1" pageWidth="1169" pageHeight="827" background="none" math="0" shadow="0">
      <root>
        <mxCell id="0" />
        <mxCell id="1" parent="0" />
        <mxCell id="1749" value="Modelo Sabsa" style="rounded=1;whiteSpace=wrap;html=1;shadow=0;labelBackgroundColor=none;strokeColor=none;strokeWidth=3;fillColor=#2F5B7C;fontFamily=Helvetica;fontSize=16;fontColor=#FFFFFF;align=center;fontStyle=1;spacing=5;arcSize=7;perimeterSpacing=2;" parent="1" vertex="1">
          <mxGeometry y="460" width="150" height="70" as="geometry" />
        </mxCell>
        <mxCell id="1753" value="Security is needed to enable new oportunitiues" style="rounded=1;whiteSpace=wrap;html=1;shadow=0;labelBackgroundColor=none;strokeColor=none;strokeWidth=3;fillColor=#e85642;fontFamily=Helvetica;fontSize=14;fontColor=#FFFFFF;align=center;spacing=5;fontStyle=1;arcSize=7;perimeterSpacing=2;" parent="1" vertex="1">
          <mxGeometry x="170" y="725" width="265" height="60" as="geometry" />
        </mxCell>
        <mxCell id="1754" value="&lt;div style=&quot;text-align: justify&quot;&gt;&lt;span&gt;It is essential that the businesses address the security issues of cyberspace and the deployment of digital opportunities and services, since good security architecture has become a critical success factor&amp;nbsp; in digital business.&lt;/span&gt;&lt;/div&gt;" style="rounded=1;whiteSpace=wrap;html=1;shadow=0;labelBackgroundColor=none;strokeColor=none;strokeWidth=3;fillColor=#f08e81;fontFamily=Helvetica;fontSize=14;fontColor=#FFFFFF;align=center;spacing=5;fontStyle=0;arcSize=7;perimeterSpacing=2;" parent="1" vertex="1">
          <mxGeometry x="457.5" y="680" width="280" height="150" as="geometry" />
        </mxCell>
        <mxCell id="1756" value="Offers a strategy balanced view of business risk, in line with ISO 31000" style="rounded=1;whiteSpace=wrap;html=1;shadow=0;labelBackgroundColor=none;strokeColor=none;strokeWidth=3;fillColor=#f08e81;fontFamily=Helvetica;fontSize=14;fontColor=#FFFFFF;align=center;spacing=5;fontStyle=0;arcSize=7;perimeterSpacing=2;" parent="1" vertex="1">
          <mxGeometry x="180" y="110" width="285" height="70" as="geometry" />
        </mxCell>
        <mxCell id="1760" value="Business models and business architecture are being renewed into a virtual one, therefore creating opportunities and threats to the business" style="rounded=1;whiteSpace=wrap;html=1;shadow=0;labelBackgroundColor=none;strokeColor=none;strokeWidth=3;fillColor=#1699d3;fontFamily=Helvetica;fontSize=14;fontColor=#FFFFFF;align=center;spacing=5;fontStyle=1;arcSize=7;perimeterSpacing=2;" parent="1" vertex="1">
          <mxGeometry x="182.5" y="210" width="280" height="80" as="geometry" />
        </mxCell>
        <mxCell id="1761" value="&lt;div&gt;&lt;span&gt;This analisis consist of six questions to explore the details of what is to be done in each layer.&lt;/span&gt;&lt;/div&gt;&lt;div&gt;&lt;span&gt;The questions are:&lt;/span&gt;&lt;/div&gt;&lt;ul&gt;&lt;li&gt;What?(assets)&lt;/li&gt;&lt;li&gt;Why? (Motivation)&lt;/li&gt;&lt;li&gt;How? Process&lt;/li&gt;&lt;li&gt;Who? (People)&lt;/li&gt;&lt;li&gt;Where? (Location)&lt;/li&gt;&lt;li&gt;When (time)&lt;/li&gt;&lt;/ul&gt;" style="rounded=1;whiteSpace=wrap;html=1;shadow=0;labelBackgroundColor=none;strokeColor=none;strokeWidth=3;fillColor=#64bbe2;fontFamily=Helvetica;fontSize=14;fontColor=#FFFFFF;align=left;spacing=5;arcSize=7;perimeterSpacing=2;" parent="1" vertex="1">
          <mxGeometry x="465" y="845" width="335" height="185" as="geometry" />
        </mxCell>
        <mxCell id="1764" value="Digital disruption is a competitive issue" style="rounded=1;whiteSpace=wrap;html=1;shadow=0;labelBackgroundColor=none;strokeColor=none;strokeWidth=3;fillColor=#F08705;fontFamily=Helvetica;fontSize=14;fontColor=#FFFFFF;align=center;spacing=5;fontStyle=1;arcSize=7;perimeterSpacing=2;" parent="1" vertex="1">
          <mxGeometry x="180" y="360" width="265" height="90" as="geometry" />
        </mxCell>
        <mxCell id="1767" value="Is the change that occurs when new digital technologies and business models affect the value proposition of existing goods and services" style="rounded=1;whiteSpace=wrap;html=1;shadow=0;labelBackgroundColor=none;strokeColor=none;strokeWidth=3;fillColor=#f5af58;fontFamily=Helvetica;fontSize=14;fontColor=#FFFFFF;align=left;spacing=5;arcSize=7;perimeterSpacing=2;" parent="1" vertex="1">
          <mxGeometry x="460" y="295" width="330" height="70" as="geometry" />
        </mxCell>
        <mxCell id="1769" value="World leading framework for developing Enterprise Security Architecture" style="rounded=1;whiteSpace=wrap;html=1;shadow=0;labelBackgroundColor=none;strokeColor=none;strokeWidth=3;fillColor=#f5af58;fontFamily=Helvetica;fontSize=14;fontColor=#FFFFFF;align=center;spacing=5;arcSize=7;perimeterSpacing=2;" parent="1" vertex="1">
          <mxGeometry x="177.5" y="20" width="280" height="60" as="geometry" />
        </mxCell>
        <mxCell id="1771" value="is focused on creating value and uses a 6 layer architecture model" style="rounded=1;whiteSpace=wrap;html=1;shadow=0;labelBackgroundColor=none;strokeColor=none;strokeWidth=3;fillColor=#12aab5;fontFamily=Helvetica;fontSize=14;fontColor=#FFFFFF;align=center;spacing=5;fontStyle=1;arcSize=7;perimeterSpacing=2;" parent="1" vertex="1">
          <mxGeometry x="182.5" y="515" width="607.5" height="60" as="geometry" />
        </mxCell>
        <mxCell id="1772" value="Conceptual Architecture: The Architect&#39;s Vision" style="rounded=1;whiteSpace=wrap;html=1;shadow=0;labelBackgroundColor=none;strokeColor=none;strokeWidth=3;fillColor=#61c6ce;fontFamily=Helvetica;fontSize=14;fontColor=#FFFFFF;align=center;spacing=5;fontStyle=0;arcSize=7;perimeterSpacing=2;" parent="1" vertex="1">
          <mxGeometry x="810" y="170.5" width="170" height="60" as="geometry" />
        </mxCell>
        <mxCell id="1774" value="Physical Architecture:&lt;br&gt;The Builder&#39;s&amp;nbsp; view" style="rounded=1;whiteSpace=wrap;html=1;shadow=0;labelBackgroundColor=none;strokeColor=none;strokeWidth=3;fillColor=#61c6ce;fontFamily=Helvetica;fontSize=14;fontColor=#FFFFFF;align=center;spacing=5;fontStyle=0;arcSize=7;perimeterSpacing=2;" parent="1" vertex="1">
          <mxGeometry x="810" y="450" width="170" height="60" as="geometry" />
        </mxCell>
        <mxCell id="1776" value="Logical Architecture:&lt;br&gt;The designer&#39;s view&amp;nbsp;" style="rounded=1;whiteSpace=wrap;html=1;shadow=0;labelBackgroundColor=none;strokeColor=none;strokeWidth=3;fillColor=#61c6ce;fontFamily=Helvetica;fontSize=14;fontColor=#FFFFFF;align=center;spacing=5;fontStyle=0;arcSize=7;perimeterSpacing=2;" parent="1" vertex="1">
          <mxGeometry x="810" y="310" width="170" height="60" as="geometry" />
        </mxCell>
        <mxCell id="1778" value="Contextual Architecture: &lt;br&gt;Business View" style="rounded=1;whiteSpace=wrap;html=1;shadow=0;labelBackgroundColor=none;strokeColor=none;strokeWidth=3;fillColor=#61c6ce;fontFamily=Helvetica;fontSize=14;fontColor=#FFFFFF;align=center;spacing=5;fontStyle=0;arcSize=7;perimeterSpacing=2;" parent="1" vertex="1">
          <mxGeometry x="810" y="40" width="170" height="60" as="geometry" />
        </mxCell>
        <mxCell id="uoxF39MqH3ivu8WBFDf6-1783" value="" style="shape=curlyBracket;whiteSpace=wrap;html=1;rounded=1;" parent="1" vertex="1">
          <mxGeometry x="150" y="50" width="20" height="1120" as="geometry" />
        </mxCell>
        <mxCell id="uoxF39MqH3ivu8WBFDf6-1786" value="" style="shape=curlyBracket;whiteSpace=wrap;html=1;rounded=1;" parent="1" vertex="1">
          <mxGeometry x="445" y="295" width="20" height="220" as="geometry" />
        </mxCell>
        <mxCell id="uoxF39MqH3ivu8WBFDf6-1787" value="Digital Disruption is:&lt;br&gt;&lt;ul&gt;&lt;li&gt;Detectable&lt;/li&gt;&lt;li&gt;Clear&lt;/li&gt;&lt;li&gt;Inevitable&amp;nbsp;&lt;/li&gt;&lt;li&gt;The new Normal&amp;nbsp;&lt;/li&gt;&lt;/ul&gt;" style="rounded=1;whiteSpace=wrap;html=1;shadow=0;labelBackgroundColor=none;strokeColor=none;strokeWidth=3;fillColor=#f5af58;fontFamily=Helvetica;fontSize=14;fontColor=#FFFFFF;align=left;spacing=5;arcSize=7;perimeterSpacing=2;" parent="1" vertex="1">
          <mxGeometry x="457.5" y="400" width="330" height="105" as="geometry" />
        </mxCell>
        <mxCell id="uoxF39MqH3ivu8WBFDf6-1788" value="" style="shape=curlyBracket;whiteSpace=wrap;html=1;rounded=1;" parent="1" vertex="1">
          <mxGeometry x="440" y="680" width="20" height="150" as="geometry" />
        </mxCell>
        <mxCell id="uoxF39MqH3ivu8WBFDf6-1791" value="" style="shape=curlyBracket;whiteSpace=wrap;html=1;rounded=1;" parent="1" vertex="1">
          <mxGeometry x="800" y="40" width="20" height="1010" as="geometry" />
        </mxCell>
        <mxCell id="uoxF39MqH3ivu8WBFDf6-1792" value="Component&amp;nbsp;Architecture&lt;br&gt;&amp;nbsp;The technician View" style="rounded=1;whiteSpace=wrap;html=1;shadow=0;labelBackgroundColor=none;strokeColor=none;strokeWidth=3;fillColor=#61c6ce;fontFamily=Helvetica;fontSize=14;fontColor=#FFFFFF;align=center;spacing=5;fontStyle=0;arcSize=7;perimeterSpacing=2;" parent="1" vertex="1">
          <mxGeometry x="815" y="590" width="160" height="60" as="geometry" />
        </mxCell>
        <mxCell id="uoxF39MqH3ivu8WBFDf6-1793" value="Management Architecture:&lt;br&gt;The manager&#39;s view" style="rounded=1;whiteSpace=wrap;html=1;shadow=0;labelBackgroundColor=none;strokeColor=none;strokeWidth=3;fillColor=#61c6ce;fontFamily=Helvetica;fontSize=14;fontColor=#FFFFFF;align=center;spacing=5;fontStyle=0;arcSize=7;perimeterSpacing=2;" parent="1" vertex="1">
          <mxGeometry x="815" y="730" width="165" height="60" as="geometry" />
        </mxCell>
        <mxCell id="uoxF39MqH3ivu8WBFDf6-1794" value="" style="shape=curlyBracket;whiteSpace=wrap;html=1;rounded=1;" parent="1" vertex="1">
          <mxGeometry x="980" y="280" width="20" height="120" as="geometry" />
        </mxCell>
        <mxCell id="uoxF39MqH3ivu8WBFDf6-1795" value="&amp;nbsp;This is the view seen from the viewpoint of the business owner or executive business manager." style="rounded=1;whiteSpace=wrap;html=1;shadow=0;labelBackgroundColor=none;strokeColor=none;strokeWidth=3;fillColor=#61c6ce;fontFamily=Helvetica;fontSize=14;fontColor=#FFFFFF;align=center;spacing=5;fontStyle=0;arcSize=7;perimeterSpacing=2;" parent="1" vertex="1">
          <mxGeometry x="1000" y="10" width="160" height="120" as="geometry" />
        </mxCell>
        <mxCell id="uoxF39MqH3ivu8WBFDf6-1796" value="Defines principles and fundamental concepts that guide the selection and organisation of the logical and physical elements at the lower layers of abstraction." style="rounded=1;whiteSpace=wrap;html=1;shadow=0;labelBackgroundColor=none;strokeColor=none;strokeWidth=3;fillColor=#61c6ce;fontFamily=Helvetica;fontSize=14;fontColor=#FFFFFF;align=center;spacing=5;fontStyle=0;arcSize=7;perimeterSpacing=2;" parent="1" vertex="1">
          <mxGeometry x="1000" y="140.5" width="160" height="120" as="geometry" />
        </mxCell>
        <mxCell id="uoxF39MqH3ivu8WBFDf6-1797" value="" style="shape=curlyBracket;whiteSpace=wrap;html=1;rounded=1;" parent="1" vertex="1">
          <mxGeometry x="980" y="140.5" width="20" height="120" as="geometry" />
        </mxCell>
        <mxCell id="uoxF39MqH3ivu8WBFDf6-1798" value="is basically the engineer who is concerned with the logical elements of the architecture such as information, services, processes or application functions.&amp;nbsp;" style="rounded=1;whiteSpace=wrap;html=1;shadow=0;labelBackgroundColor=none;strokeColor=none;strokeWidth=3;fillColor=#61c6ce;fontFamily=Helvetica;fontSize=14;fontColor=#FFFFFF;align=center;spacing=5;fontStyle=0;arcSize=7;perimeterSpacing=2;" parent="1" vertex="1">
          <mxGeometry x="1000" y="280" width="160" height="120" as="geometry" />
        </mxCell>
        <mxCell id="uoxF39MqH3ivu8WBFDf6-1799" value="" style="shape=curlyBracket;whiteSpace=wrap;html=1;rounded=1;" parent="1" vertex="1">
          <mxGeometry x="980" y="10" width="20" height="120" as="geometry" />
        </mxCell>
        <mxCell id="uoxF39MqH3ivu8WBFDf6-1801" value="" style="shape=curlyBracket;whiteSpace=wrap;html=1;rounded=1;" parent="1" vertex="1">
          <mxGeometry x="980" y="414" width="20" height="120" as="geometry" />
        </mxCell>
        <mxCell id="uoxF39MqH3ivu8WBFDf6-1802" value="The builder is someone who can take the logical descriptions and drawings and turn these into a technology model that can be used to construct the system." style="rounded=1;whiteSpace=wrap;html=1;shadow=0;labelBackgroundColor=none;strokeColor=none;strokeWidth=3;fillColor=#61c6ce;fontFamily=Helvetica;fontSize=14;fontColor=#FFFFFF;align=center;spacing=5;fontStyle=0;arcSize=7;perimeterSpacing=2;" parent="1" vertex="1">
          <mxGeometry x="1000" y="414" width="160" height="120" as="geometry" />
        </mxCell>
        <mxCell id="uoxF39MqH3ivu8WBFDf6-1803" value="in this layer are the people with the skills to configure and implement the products made by the builder." style="rounded=1;whiteSpace=wrap;html=1;shadow=0;labelBackgroundColor=none;strokeColor=none;strokeWidth=3;fillColor=#61c6ce;fontFamily=Helvetica;fontSize=14;fontColor=#FFFFFF;align=center;spacing=5;fontStyle=0;arcSize=7;perimeterSpacing=2;" parent="1" vertex="1">
          <mxGeometry x="1000" y="560" width="160" height="120" as="geometry" />
        </mxCell>
        <mxCell id="uoxF39MqH3ivu8WBFDf6-1804" value="" style="shape=curlyBracket;whiteSpace=wrap;html=1;rounded=1;" parent="1" vertex="1">
          <mxGeometry x="980" y="560" width="20" height="120" as="geometry" />
        </mxCell>
        <mxCell id="uoxF39MqH3ivu8WBFDf6-1805" value="In this layer are the people responsible for managing and running the system during its lifetime." style="rounded=1;whiteSpace=wrap;html=1;shadow=0;labelBackgroundColor=none;strokeColor=none;strokeWidth=3;fillColor=#61c6ce;fontFamily=Helvetica;fontSize=14;fontColor=#FFFFFF;align=center;spacing=5;fontStyle=0;arcSize=7;perimeterSpacing=2;" parent="1" vertex="1">
          <mxGeometry x="1000" y="700" width="160" height="120" as="geometry" />
        </mxCell>
        <mxCell id="uoxF39MqH3ivu8WBFDf6-1806" value="" style="shape=curlyBracket;whiteSpace=wrap;html=1;rounded=1;" parent="1" vertex="1">
          <mxGeometry x="980" y="700" width="20" height="120" as="geometry" />
        </mxCell>
        <mxCell id="uoxF39MqH3ivu8WBFDf6-1807" value="The Governor&#39;s View" style="rounded=1;whiteSpace=wrap;html=1;shadow=0;labelBackgroundColor=none;strokeColor=none;strokeWidth=3;fillColor=#61c6ce;fontFamily=Helvetica;fontSize=14;fontColor=#FFFFFF;align=center;spacing=5;fontStyle=0;arcSize=7;perimeterSpacing=2;" parent="1" vertex="1">
          <mxGeometry x="810" y="870" width="165" height="60" as="geometry" />
        </mxCell>
        <mxCell id="uoxF39MqH3ivu8WBFDf6-1808" value="These are the owners and senior management who sets the performance targets&amp;nbsp;" style="rounded=1;whiteSpace=wrap;html=1;shadow=0;labelBackgroundColor=none;strokeColor=none;strokeWidth=3;fillColor=#61c6ce;fontFamily=Helvetica;fontSize=14;fontColor=#FFFFFF;align=center;spacing=5;fontStyle=0;arcSize=7;perimeterSpacing=2;" parent="1" vertex="1">
          <mxGeometry x="1000" y="840" width="160" height="120" as="geometry" />
        </mxCell>
        <mxCell id="uoxF39MqH3ivu8WBFDf6-1809" value="" style="shape=curlyBracket;whiteSpace=wrap;html=1;rounded=1;" parent="1" vertex="1">
          <mxGeometry x="980" y="840" width="20" height="120" as="geometry" />
        </mxCell>
        <mxCell id="uoxF39MqH3ivu8WBFDf6-1810" value="The Inspector&#39;s View:&lt;br&gt;Assurance Framework&amp;nbsp;" style="rounded=1;whiteSpace=wrap;html=1;shadow=0;labelBackgroundColor=none;strokeColor=none;strokeWidth=3;fillColor=#61c6ce;fontFamily=Helvetica;fontSize=14;fontColor=#FFFFFF;align=center;spacing=5;fontStyle=0;arcSize=7;perimeterSpacing=2;" parent="1" vertex="1">
          <mxGeometry x="815" y="1020" width="165" height="60" as="geometry" />
        </mxCell>
        <mxCell id="uoxF39MqH3ivu8WBFDf6-1811" value="An inspector is someone such as an auditor or a regulatory supervisor who takes an independent view of the performance of the business against targets and reports to the governors" style="rounded=1;whiteSpace=wrap;html=1;shadow=0;labelBackgroundColor=none;strokeColor=none;strokeWidth=3;fillColor=#61c6ce;fontFamily=Helvetica;fontSize=14;fontColor=#FFFFFF;align=center;spacing=5;fontStyle=0;arcSize=7;perimeterSpacing=2;" parent="1" vertex="1">
          <mxGeometry x="999" y="970" width="170" height="140" as="geometry" />
        </mxCell>
        <mxCell id="uoxF39MqH3ivu8WBFDf6-1812" value="" style="shape=curlyBracket;whiteSpace=wrap;html=1;rounded=1;" parent="1" vertex="1">
          <mxGeometry x="980" y="970" width="20" height="140" as="geometry" />
        </mxCell>
        <mxCell id="uoxF39MqH3ivu8WBFDf6-1813" value="The Sabsa Matrices provide a detailed analysis of each architectural layer" style="rounded=1;whiteSpace=wrap;html=1;shadow=0;labelBackgroundColor=none;strokeColor=none;strokeWidth=3;fillColor=#1699d3;fontFamily=Helvetica;fontSize=14;fontColor=#FFFFFF;align=center;spacing=5;fontStyle=1;arcSize=7;perimeterSpacing=2;" parent="1" vertex="1">
          <mxGeometry x="172.5" y="897.5" width="280" height="80" as="geometry" />
        </mxCell>
        <mxCell id="uoxF39MqH3ivu8WBFDf6-1814" value="" style="shape=curlyBracket;whiteSpace=wrap;html=1;rounded=1;" parent="1" vertex="1">
          <mxGeometry x="452.5" y="845" width="20" height="185" as="geometry" />
        </mxCell>
        <mxCell id="uoxF39MqH3ivu8WBFDf6-1815" value="Sabsa provides a holistic approach by meeting the needs to separate the security Governance from security Management." style="rounded=1;whiteSpace=wrap;html=1;shadow=0;labelBackgroundColor=none;strokeColor=none;strokeWidth=3;fillColor=#F08705;fontFamily=Helvetica;fontSize=14;fontColor=#FFFFFF;align=center;spacing=5;fontStyle=1;arcSize=7;perimeterSpacing=2;" parent="1" vertex="1">
          <mxGeometry x="170" y="1130" width="265" height="90" as="geometry" />
        </mxCell>
        <mxCell id="uoxF39MqH3ivu8WBFDf6-1817" value="" style="shape=curlyBracket;whiteSpace=wrap;html=1;rounded=1;" parent="1" vertex="1">
          <mxGeometry x="437.5" y="1080" width="20" height="185" as="geometry" />
        </mxCell>
        <mxCell id="uoxF39MqH3ivu8WBFDf6-1818" value="The principles includes:&lt;br&gt;&lt;ul&gt;&lt;li&gt;Delivering an integrated approach&lt;/li&gt;&lt;li&gt;Meeting Business Stakeholders needs&lt;/li&gt;&lt;li&gt;End-to-end &amp;amp; Through¡-life Coverage&lt;/li&gt;&lt;/ul&gt;" style="rounded=1;whiteSpace=wrap;html=1;shadow=0;labelBackgroundColor=none;strokeColor=none;strokeWidth=3;fillColor=#F08705;fontFamily=Helvetica;fontSize=14;fontColor=#FFFFFF;align=left;spacing=5;fontStyle=1;arcSize=7;perimeterSpacing=2;" parent="1" vertex="1">
          <mxGeometry x="452" y="1080" width="265" height="180" as="geometry" />
        </mxCell>
      </root>
    </mxGraphModel>
  </diagram>
</mxfile>
